<?xml version="1.0" encoding="UTF-8" standalone="no"?>
<svg xmlns="http://www.w3.org/2000/svg" version="1.2" width="1512" height="350">
  <g fill="none" stroke="black" stroke-width="5" stroke-linecap="round" stroke-linejoin="round" transform="translate(40 -325) scale(.5)">
    <!-- Streckengleis! -->
    <path d="M 2807 1218 A 19000 19000 0 0 0 25 1106" vector-effect="non-scaling-stroke"/>
    <!-- Anschlussweiche -->
    <path d="M 541 1096 A 3000 3000 0 0 0 950 1046" vector-effect="non-scaling-stroke"/>
    <!-- Gegenanschlussweiche -->
    <path d="M 942 1004 A 3000 3000 0 0 0 1352 962" vector-effect="non-scaling-stroke"/>
    <!-- Ziehgleis, rechts -->
    <line x1="950" y1="1046" x2="2414" y2="743" vector-effect="non-scaling-stroke"/>
    <line x1="2410" y1="724" x2="2418" y2="763" vector-effect="non-scaling-stroke"/>
    <!-- Ziehgleis, links -->
    <line x1="942" y1="1004" x2="582" y2="1004" vector-effect="non-scaling-stroke"/>
    <line x1="582" y1="984" x2="582" y2="1024" vector-effect="non-scaling-stroke"/>
    <g fill="none" stroke="black" stroke-width="2">
      <!-- Watti rechts -->
      <path d="M 1429 1092 L 1509 1094 L 1512 1015 L 1432 1012 Z" vector-effect="non-scaling-stroke"/>
      <!-- Watti links -->
      <path d="M 344 1200 L 424 1200 L 424 1120 L 344 1120 Z" vector-effect="non-scaling-stroke"/>
    </g>
  </g>
  <!-- Beschriftungen -->
  <g text-anchor="middle" font-size="25">
    <text x="1263" y="51">1</text>
    <text x="312" y="185">2</text>
  </g>
  <!-- Ladestellen -->
  <g text-anchor="middle" font-size="25" font-family="Arial">
    <!-- Ladestellen -->
    <path d="M350, 150 v15 h150 v-15" stroke="black" fill="none" stroke-width="2"/>
    <text x="425" y="150" stroke-width="1">Rampe 2</text>
    <g transform="rotate(-11.5, 850, 100)">
      <path d="M850,100 v15 h150 v-15 M1050,100 v15 h150 v-15" stroke="black" fill="none" stroke-width="2"/>
      <text x="925" y="100" stroke-width="1">Rampe 1</text>
      <text x="1125" y="100" stroke-width="1">Ladestraße</text>
    </g>
  </g>
  <g text-anchor="middle" font-size="30" font-family="Arial">
    <text x="232" y="266">W</text>
    <text x="774.5" y="213" transform="rotate(3, 775, 215)">W</text>
  </g>
</svg>
