<?xml version="1.0" encoding="UTF-8" standalone="no"?>
<svg width="1400" height="225" xmlns="http://www.w3.org/2000/svg" version="1.2">
  <g fill="none" stroke="black" stroke-width="5" stroke-linecap="round" stroke-linejoin="round" transform="translate(-25, -50) scale(.4)">
    <path vector-effect="non-scaling-stroke" d="M3501,570 A16000,16000 0 0 0 1819,500"/>
    <path vector-effect="non-scaling-stroke" d="M3322,554 A4400,4300 0 0 0 2139,398"/>
    <path vector-effect="non-scaling-stroke" d="M1819,500 A16000,16000 0 0 0 138,606"/>
    <path vector-effect="non-scaling-stroke" d="M2139,398 A16000,16000 0 0 0 709,448"/>
    <path vector-effect="non-scaling-stroke" d="M1816,253 A16000,16000 0 0 0 1232,269"/>
    <path vector-effect="non-scaling-stroke" d="M287,590 L1232,269"/>
    <path vector-effect="non-scaling-stroke" d="M1816,253 L2675,253"/>
  </g>
  <rect x="674.5" y="48" width="30" height="145" fill="white"/>
  <g text-anchor="middle" font-size="22">
    <text x="690" y="157">1</text>
    <text x="690" y="117">2</text>
    <text x="690" y="63">3</text>
    <text x="835" y="34">Ladestraße</text>
  </g>
  <g stroke="black" fill="none" stroke-width="1">
    <!-- Ladestellen -->
    <path d="M750,171 v-15 m0,0 a8000,8000 0 0 1 350,10 m0,0 v15"/>
    <path d="M750,131 v-15 m0,0 a2000,2000 0 0 1 350,20 m0,0 v15"/>
    <path d="M650,30 v15 h380 v-15"/>
  </g>
</svg>
