<?xml version="1.0" encoding="UTF-8" standalone="no"?>
<svg xmlns="http://www.w3.org/2000/svg" version="1.2" width="1515" height="300">
  <g fill="none" stroke="black" stroke-width="5" stroke-linecap="round" stroke-linejoin="round" transform="translate(25,-530) scale(.27)">
    <path d="M1,2500 L5401,2500" vector-effect="non-scaling-stroke"/>
    <path d="M713,2620 L5401,2620" vector-effect="non-scaling-stroke"/>
    <path d="M1257,2740 L5401,2740" vector-effect="non-scaling-stroke"/>
    <path d="M1176,2860 L5401,2860" vector-effect="non-scaling-stroke"/>
    <path d="M1658,2380 L5401,2380" vector-effect="non-scaling-stroke"/>
    <path d="M1636,2260 L5401,2260" vector-effect="non-scaling-stroke"/>
    <path d="M1556,2140 L5401,2140" vector-effect="non-scaling-stroke"/>
    <path d="M169,2500 L1257,2740" vector-effect="non-scaling-stroke"/>
    <path d="M441,2560 L683,2751" vector-effect="non-scaling-stroke"/>
    <path d="M683,2751 L1176,2860" vector-effect="non-scaling-stroke"/>
    <path d="M548,2500 L1636,2260" vector-effect="non-scaling-stroke"/>
    <path d="M820,2440 L1062,2249" vector-effect="non-scaling-stroke"/>
    <path d="M1062,2249 L1556,2140" vector-effect="non-scaling-stroke"/>
    <path d="M1114,2500 L1658,2380" vector-effect="non-scaling-stroke"/>
    <g stroke-width="1">
      <path d="M1801,3000 L1801,2000" vector-effect="non-scaling-stroke"/>
      <path d="M3601,3000 L3601,2000" vector-effect="non-scaling-stroke"/>
    </g>
  </g>
  <rect x="750" y="30" width="30" height="225" fill="white" />
  <g text-anchor="middle" font-size="22">
    <text x="766" y="53">01</text>
    <text x="766" y="85">02</text>
    <text x="766" y="118">03</text>
    <text x="766" y="150">04</text>
    <text x="766" y="182">05</text>
    <text x="766" y="215">06</text>
    <text x="766" y="248">07</text>
  </g>
</svg>
