<?xml version="1.0" encoding="UTF-8" standalone="no"?>
<svg xmlns="http://www.w3.org/2000/svg" viewBox="-160 575 1300 475">
  <g fill="none" stroke="black" stroke-width="3">
    <line x1="-135.92117879" y1="912.67372955" x2="1097.5780314" y2="912.67398001"/>
    <line x1="1066.7244151" y1="860.10175368" x2="437.95017778" y2="860.10154907"/>
    <rect x="930" y="840" fill="#fff" width="30" height="30" style="stroke-width:0;"/>
    <text x="940" y="868" font-size="17.5pt" stroke-width="2">1</text>
    <line x1="-96.61661567" y1="680.60608979" x2="573.18136399" y2="860.10159308"/>
    <rect x="110" y="725" fill="#fff" width="30" height="30" style="stroke-width:0;"/>
    <text x="120" y="747" font-size="17.5pt" stroke-width="2">2</text>
    <line x1="-135.66971134" y1="706.39202317" x2="437.95017778" y2="860.10154907"/>
    <rect x="110" y="755" fill="#fff" width="30" height="30" style="stroke-width:0;"/>
    <text x="120" y="785" font-size="17.5pt" stroke-width="2">3</text>
    <!-- Kuehlhaeuser -->
    <path d="M374.27760819,737.93478592 L366.76764795,764.97154446 L397.30842009,773.48386799 L404.81888126,745.9466792 L374.27760819,737.93478592 Z "/>
    <path d="M20.29308754,642.3040182 L-10.74861578,633.79269653 L-22.76545384,678.8544617 L8.27675041,686.86535312 L20.29308754,642.3040182 Z "/>
    <path d="M29.80727343,606.75543706 L8.27675041,686.86535312 L343.73633512,776.48945506 L364.76392323,696.87996925 L29.80727343,606.75543706 Z "/>
    <!-- Gleisabschluss links -->
    <g transform="rotate(15,-110.53014016,675.84445502)">
      <path d="M-103.2443948,668.56264962 L-117.81588551,668.56264962 L-117.81588551,683.12626042 L-103.2443948,683.12626042 L-103.2443948,673.56264962 Z "/>
      <circle cx="-110.53014016" cy="675.84445502" r="7.28574535"/>
      <path d="M-110.29056672,668.56264962 L-110.29056672,683.12626042 "/>
    </g>
    <!-- Gleisabschluss rechts -->
    <path d="M1095.86739651,852.81994828 L1081.29590581,852.81994828 L1081.29590581,867.38355908 L1095.86739651,867.38355908 L1095.86739651,852.81994828 Z "/>
    <circle cx="1088.58165116" cy="860.10175368" r="7.28574535"/>
    <path d="M1088.8212246,852.81994828 L1088.82122459,867.38355908 "/>
    <!-- Gleisverschwenkung nach oben -->
    <path d="M880.43814633,886.37759812 A727.12997087,727.12997087 0 0,0 730.26316901,860.09143357 "/>
    <path d="M880.43814636,886.37759812 A730.61672571,730.61672571 0 0,0 1030.61312367,912.66375651 "/>
    <!-- Stumpfgleis nach unten -->
    <path d="M880.43814636,912.66372602 A1261.67887844,1261.67887844 0 0,0 612.82230316,953.66374446 "/>
    <path d="M345.20645996,1014.66376291 A1261.67887844,1261.67887844 0 0,0 612.82230316,953.66374446 "/>
    <line x1="345.20827261" y1="1014.66361734" x2="-132.41670107" y2="1014.66352052"/>
    <rect x="110" y="994" fill="#fff" width="30" height="30" style="stroke-width:0;"/>
    <text x="120" y="1022" font-size="17.5pt" stroke-width="2">4</text>
  </g>
</svg>
