<?xml version="1.0" encoding="UTF-8" standalone="no"?>
<svg xmlns="http://www.w3.org/2000/svg" version="1.2" width="1000" height="400">
  <g fill="none" stroke="#000000" stroke-width="5" stroke-linecap="round" stroke-linejoin="round" transform="translate(50,-100) scale(.3)">
  <!-- abzweigendes Streckengleis -->
  <line x1="688" y1="962" x2="2887" y2="488" vector-effect="non-scaling-stroke"/>
  <path d="M 333 1004 A 1800 1800 0 0 0 688 962" vector-effect="non-scaling-stroke"/>
  <!-- Anschlussgleis und Prellbock -->
  <line x1="164" y1="1283" x2="164" y2="1383" vector-effect="non-scaling-stroke"/>
  <line x1="164" y1="1333" x2="1996" y2="1333" vector-effect="non-scaling-stroke"/>
  <path d="M 2333 1379 A 1250 1250 0 0 0 1996 1333" vector-effect="non-scaling-stroke"/>
  <!-- durchgehendes Streckengleis -->
  <line x1="3" y1="1005" x2="691" y2="1005" vector-effect="non-scaling-stroke"/>
  <line x1="1268" y1="1084" x2="2855" y2="1523" vector-effect="non-scaling-stroke"/>
  <path d="M 1268 1084 A 2100 2100 0 0 0 691 1005" vector-effect="non-scaling-stroke"/>
  <g stroke-width="2.5">
    <!-- oberes Signal -->
    <path d="M1750,636 L1897,605 M1907,653 L1886,556 M1636,704 L1759,677 L1741,595 L1618,622 L1618,622 Z" vector-effect="non-scaling-stroke"/>
    <circle cx="1659.85" cy="673.001" r="11.9993" vector-effect="non-scaling-stroke"/>
    <circle cx="1652.68" cy="639.762" r="11.9993" vector-effect="non-scaling-stroke"/>
    <!-- unteres Signal -->
    <path d="M1763,1119 L1907,1159 M1894,1207 L1921,1111 M1630,1126 L1752,1160 L1774,1079 L1653,1045 L1630,1126 Z" vector-effect="non-scaling-stroke"/>
    <circle cx="1665.76" cy="1109.84" r="11.9993" vector-effect="non-scaling-stroke"/>
    <circle cx="1674.83" cy="1077.06" r="11.9993" vector-effect="non-scaling-stroke"/>
    </g>
  </g>
  <g text-anchor="middle" font-size="22">
    <text x="918" y="365">1</text>
    <text x="35" y="208">1</text>
    <text x="85" y="308">3</text>
    <text x="928" y="53">2</text>
    <text x="161" y="355">a</text>
    <text x="305" y="355">b</text>
    <text x="450" y="355">c</text>
  </g>
  <g stroke="black" fill="none" stroke-width="2">
    <!-- Ladestellen -->
    <path d="M115,310 h100 M295,310 v-40 h20 v60 h-20 Z M400,320 v-40 h100 v40 h-100 Z"/>
  </g>
</svg>
